<svg id="STYLE.COM_LOGOTYPE" xmlns="http://www.w3.org/2000/svg" viewBox="0 0 2214.55 295"><defs><style>.cls-1{fill:#171b32;}</style></defs><title>Onsite_Logo_Blue</title><path class="cls-1" d="M1048.34,211.44H949.68a3.55,3.55,0,0,1-3.54-3.54V169.77a3.55,3.55,0,0,1,3.54-3.55h90.59a3.54,3.54,0,0,0,3.54-3.54v-30a3.54,3.54,0,0,0-3.54-3.55H949.68a3.54,3.54,0,0,1-3.54-3.55V88.22a3.55,3.55,0,0,1,3.54-3.54H1047a3.54,3.54,0,0,0,3.54-3.56V49.21a3.53,3.53,0,0,0-3.54-3.54H905.28a3.54,3.54,0,0,0-3.55,3.54V246.65a3.55,3.55,0,0,0,3.55,3.54h143.06a3.54,3.54,0,0,0,3.54-3.54V215a3.54,3.54,0,0,0-3.54-3.54"/><path class="cls-1" d="M1146.08,203.35a24.39,24.39,0,0,0-24.7,24.44c0,13.85,10.31,24.43,24.7,24.43s25-10.59,25-24.43a24.63,24.63,0,0,0-25-24.44"/><path class="cls-1" d="M1258.09,147.61V148c.35,37,27.15,65.2,62.16,65.2,24.14,0,44.55-12.76,54.36-36.44l.17-.43a3.51,3.51,0,0,1,4.24-2.13l35.72,10.39a3.59,3.59,0,0,1,2.47,4.36c0,.12-.13.38-.13.38-15.13,39.52-52.36,64.52-96.83,64.52-59.27,0-105.83-46.09-106.55-105.17v-1.37C1214.31,88.17,1260.9,42,1320.24,42c44.47,0,81.7,25,96.83,64.52,0,0,.09.26.13.38a3.59,3.59,0,0,1-2.47,4.36L1379,121.62a3.51,3.51,0,0,1-4.24-2.13l-.17-.43c-9.81-23.69-30.22-36.44-54.36-36.44-35,0-61.81,28.15-62.16,65.2v.4"/><path class="cls-1" d="M1568.62,41.63c-59.74,0-107.37,47.36-107.37,106.83,0,59.22,47.62,105.77,107.37,105.77,60,0,107.65-46.55,107.65-105.77,0-59.46-47.64-106.83-107.65-106.83m0,172.23c-35.26,0-63-28-63-65.4,0-37.66,27.72-66.19,63-66.19s63,28.53,63,66.19c0,37.41-27.72,65.4-63,65.4"/><path class="cls-1" d="M845.79,211.44H751.44a3.55,3.55,0,0,1-3.55-3.54V49.27a3.59,3.59,0,0,0-3.54-3.6H707a3.57,3.57,0,0,0-3.57,3.57V246.65a3.56,3.56,0,0,0,3.57,3.54H845.79a3.54,3.54,0,0,0,3.55-3.54V215a3.55,3.55,0,0,0-3.55-3.54"/><path class="cls-1" d="M530.47,181.3,492.6,244.74a3.54,3.54,0,0,0,3,5.46h43.69a3.47,3.47,0,0,0,3-1.75l37.12-62.73L659,51a3.55,3.55,0,0,0-3-5.36H613.44a3.54,3.54,0,0,0-3.07,1.75L561.09,130l-.73,1.2a3.56,3.56,0,0,1-6.14,0L504.3,47.42a3.54,3.54,0,0,0-3.07-1.75H458.67a3.55,3.55,0,0,0-3,5.36l74.91,126.71A3.51,3.51,0,0,1,530.47,181.3Z"/><path class="cls-1" d="M2003,244.74a3.54,3.54,0,0,0,3,5.46h43.69a3.47,3.47,0,0,0,3-1.75l37.12-62.73L2169.41,51a3.55,3.55,0,0,0-3-5.36H2123.8a3.54,3.54,0,0,0-3.07,1.75Z"/><path class="cls-1" d="M156.22,133.67c30.59,9.3,48.31,25.19,48.71,56,.39,29.66-21.23,55.55-50.25,61.63C103.41,262,53.77,243.38,44,199.21L44,198.9A3.61,3.61,0,0,1,46.81,195l39.86-8.11a3.53,3.53,0,0,1,3.91,2.06c.14.38.3.85.4,1.19C96.89,208,110.49,215.75,129,215.75c19.11,0,30.13-8.61,30.13-22.61,0-10.5-5.64-16.68-19.9-20.72L100,161.65c-26.37-7.54-51.67-21.8-51.67-57.06,0-39.55,30.67-63,74.82-63,39.4,0,68.13,18.72,77.74,51.73.08.23.17.65.17.65a3.6,3.6,0,0,1-2.84,4l-37.24,7.74a3.55,3.55,0,0,1-4-2.36l-.21-.7c-5.49-16.13-19-23.35-33.84-23.35-14.54,0-27.19,7.26-27.19,22.07,0,9.42,4.85,15.6,17.23,19.37l43.32,12.92"/><path class="cls-1" d="M407.73,45.67H248.42A3.45,3.45,0,0,0,245,49.11V80.76a3.45,3.45,0,0,0,3.44,3.44h54.14A3.44,3.44,0,0,1,306,87.66l0,159.09a3.45,3.45,0,0,0,3.44,3.44h37.26a3.45,3.45,0,0,0,3.45-3.44l0-159.09a3.45,3.45,0,0,1,3.46-3.46h54.11a3.46,3.46,0,0,0,3.46-3.44V49.11a3.46,3.46,0,0,0-3.46-3.44"/><path class="cls-1" d="M1843.59,246.07c-1.4,0-2.34-1.16-3.38-2.83L1778,137.47a3.55,3.55,0,0,0-6.61,1.79V246.65a3.54,3.54,0,0,1-3.54,3.54h-35.62a3.55,3.55,0,0,1-3.54-3.54V49.21a3.55,3.55,0,0,1,3.54-3.54h36.86a3.58,3.58,0,0,1,3.11,1.81l68.26,124.17a3.55,3.55,0,0,0,6.22,0L1915,47.48a3.6,3.6,0,0,1,3.11-1.81h36.86a3.54,3.54,0,0,1,3.54,3.54V246.65a3.54,3.54,0,0,1-3.54,3.54h-35.62a3.55,3.55,0,0,1-3.54-3.54V139.26a3.55,3.55,0,0,0-6.61-1.79L1847,243.25c-1,1.66-2,2.83-3.38,2.83"/></svg>